<svg xmlns="http://www.w3.org/2000/svg" xmlns:xlink="http://www.w3.org/1999/xlink" width="500" zoomAndPan="magnify" viewBox="0 0 375 374.999991" height="500" preserveAspectRatio="xMidYMid meet" version="1.0"><defs><clipPath id="abbcfc5360"><path d="M 100 169 L 324.90625 169 L 324.90625 205 L 100 205 Z M 100 169 " clip-rule="nonzero"/></clipPath><clipPath id="103e38fea8"><path d="M 143 83 L 324.90625 83 L 324.90625 119 L 143 119 Z M 143 83 " clip-rule="nonzero"/></clipPath><clipPath id="566a65e0db"><path d="M 237 126 L 324.90625 126 L 324.90625 162 L 237 162 Z M 237 126 " clip-rule="nonzero"/></clipPath><clipPath id="4bbb0adc10"><path d="M 42.90625 169 L 84 169 L 84 205 L 42.90625 205 Z M 42.90625 169 " clip-rule="nonzero"/></clipPath><clipPath id="684efb5172"><path d="M 151 212 L 324.90625 212 L 324.90625 248 L 151 248 Z M 151 212 " clip-rule="nonzero"/></clipPath><clipPath id="b526cb6378"><path d="M 169 255 L 324.90625 255 L 324.90625 291 L 169 291 Z M 169 255 " clip-rule="nonzero"/></clipPath></defs><g clip-path="url(#abbcfc5360)"><path fill="#ffbd59" d="M 423.429688 169.546875 L 241.359375 169.546875 L 233.585938 182.988281 L 215.582031 182.988281 L 207.804688 169.546875 C 201.101562 169.546875 117.101562 169.546875 110.394531 169.546875 L 100.339844 186.960938 L 110.394531 204.375 C 117.101562 204.375 201.101562 204.375 207.804688 204.375 L 215.582031 190.933594 L 233.585938 190.933594 L 241.359375 204.375 L 423.429688 204.375 C 425.433594 192.871094 425.433594 181.085938 423.429688 169.546875 Z M 423.429688 169.546875 " fill-opacity="1" fill-rule="nonzero"/></g><g clip-path="url(#103e38fea8)"><path fill="#ffbd59" d="M 173.460938 118.75 L 181.234375 105.308594 L 199.238281 105.308594 L 207.011719 118.75 L 398.964844 118.75 C 362.890625 78.078125 322.425781 83.882812 273.632812 83.882812 L 207.011719 83.882812 L 199.238281 97.324219 L 181.234375 97.324219 L 173.460938 83.882812 L 153.347656 83.882812 L 143.292969 101.300781 L 153.347656 118.714844 L 173.460938 118.714844 Z M 173.460938 118.75 " fill-opacity="1" fill-rule="nonzero"/></g><g clip-path="url(#566a65e0db)"><path fill="#ffbd59" d="M 293.710938 140.171875 L 275.707031 140.171875 L 267.933594 126.730469 L 247.820312 126.730469 L 237.765625 144.148438 L 247.820312 161.5625 L 267.933594 161.5625 L 275.707031 148.121094 L 293.710938 148.121094 L 301.484375 161.5625 L 421.734375 161.5625 C 418.488281 148.847656 412.855469 137.0625 405.355469 126.695312 L 301.484375 126.695312 Z M 293.710938 140.171875 " fill-opacity="1" fill-rule="nonzero"/></g><g clip-path="url(#4bbb0adc10)"><path fill="#ffbd59" d="M 52.964844 169.546875 L 42.910156 186.960938 L 52.964844 204.410156 L 73.113281 204.410156 L 83.167969 186.960938 L 73.113281 169.546875 Z M 52.964844 169.546875 " fill-opacity="1" fill-rule="nonzero"/></g><path fill="#ffbd59" d="M 180.335938 144.148438 L 190.390625 161.5625 L 210.535156 161.5625 L 220.59375 144.148438 L 210.535156 126.730469 L 190.390625 126.730469 Z M 180.335938 144.148438 " fill-opacity="1" fill-rule="nonzero"/><path fill="#ffbd59" d="M 121.695312 255.171875 L 111.605469 272.621094 L 121.695312 290.039062 L 141.808594 290.039062 L 151.863281 272.621094 L 141.808594 255.171875 Z M 121.695312 255.171875 " fill-opacity="1" fill-rule="nonzero"/><g clip-path="url(#684efb5172)"><path fill="#ffbd59" d="M 207.804688 225.800781 L 189.804688 225.800781 L 182.027344 212.359375 L 161.917969 212.359375 L 151.863281 229.773438 L 161.917969 247.191406 L 182.027344 247.191406 L 189.804688 233.75 L 207.804688 233.75 L 215.582031 247.191406 L 405.320312 247.191406 C 412.820312 236.824219 418.453125 225.039062 421.703125 212.324219 C 358.707031 212.324219 278.539062 212.324219 215.546875 212.324219 Z M 207.804688 225.800781 " fill-opacity="1" fill-rule="nonzero"/></g><g clip-path="url(#b526cb6378)"><path fill="#ffbd59" d="M 259.363281 268.648438 L 241.359375 268.648438 L 233.585938 255.207031 C 215.441406 255.207031 197.265625 255.207031 179.089844 255.207031 L 169.035156 272.621094 L 179.089844 290.039062 C 197.265625 290.039062 215.410156 290.039062 233.585938 290.039062 L 241.359375 276.597656 L 259.363281 276.597656 L 267.136719 290.039062 C 318.660156 290.039062 361.957031 296.914062 398.964844 255.171875 L 267.136719 255.171875 Z M 259.363281 268.648438 " fill-opacity="1" fill-rule="nonzero"/></g><path stroke-linecap="round" transform="matrix(0, 0.75, -0.75, 0, 332.090227, 63.626948)" fill="none" stroke-linejoin="miter" d="M 6.997403 7.000511 L 323.341174 7.000511 " stroke="#ffbd59" stroke-width="14" stroke-opacity="1" stroke-miterlimit="4"/></svg>