<svg xmlns="http://www.w3.org/2000/svg" xmlns:xlink="http://www.w3.org/1999/xlink" width="500" zoomAndPan="magnify" viewBox="0 0 375 374.999991" height="500" preserveAspectRatio="xMidYMid meet" version="1.0"><defs><g/><clipPath id="cfd50ec580"><path d="M 24 172 L 101.429688 172 L 101.429688 185 L 24 185 Z M 24 172 " clip-rule="nonzero"/></clipPath><clipPath id="3c29c09ec4"><path d="M 38 143 L 101.429688 143 L 101.429688 156 L 38 156 Z M 38 143 " clip-rule="nonzero"/></clipPath><clipPath id="46f8b1f6fb"><path d="M 71 158 L 101.429688 158 L 101.429688 171 L 71 171 Z M 71 158 " clip-rule="nonzero"/></clipPath><clipPath id="bc97ff18a2"><path d="M 4.679688 172 L 19 172 L 19 185 L 4.679688 185 Z M 4.679688 172 " clip-rule="nonzero"/></clipPath><clipPath id="434c3e312f"><path d="M 41 187 L 101.429688 187 L 101.429688 200 L 41 200 Z M 41 187 " clip-rule="nonzero"/></clipPath><clipPath id="d1c06e05ad"><path d="M 47 202 L 101.429688 202 L 101.429688 215 L 47 215 Z M 47 202 " clip-rule="nonzero"/></clipPath></defs><g clip-path="url(#cfd50ec580)"><path fill="#ffbd59" d="M 134.644531 172.859375 L 72.460938 172.859375 L 69.804688 177.449219 L 63.65625 177.449219 L 61 172.859375 C 58.710938 172.859375 30.023438 172.859375 27.730469 172.859375 L 24.296875 178.808594 L 27.730469 184.757812 C 30.023438 184.757812 58.710938 184.757812 61 184.757812 L 63.65625 180.164062 L 69.804688 180.164062 L 72.460938 184.757812 L 134.644531 184.757812 C 135.332031 180.828125 135.332031 176.800781 134.644531 172.859375 Z M 134.644531 172.859375 " fill-opacity="1" fill-rule="nonzero"/></g><g clip-path="url(#3c29c09ec4)"><path fill="#ffbd59" d="M 49.269531 155.511719 L 51.925781 150.921875 L 58.074219 150.921875 L 60.730469 155.511719 L 126.289062 155.511719 C 113.96875 141.621094 100.148438 143.601562 83.484375 143.601562 L 60.730469 143.601562 L 58.074219 148.195312 L 51.925781 148.195312 L 49.269531 143.601562 L 42.402344 143.601562 L 38.96875 149.550781 L 42.402344 155.5 L 49.269531 155.5 Z M 49.269531 155.511719 " fill-opacity="1" fill-rule="nonzero"/></g><g clip-path="url(#46f8b1f6fb)"><path fill="#ffbd59" d="M 90.339844 162.828125 L 84.191406 162.828125 L 81.539062 158.238281 L 74.667969 158.238281 L 71.234375 164.1875 L 74.667969 170.132812 L 81.539062 170.132812 L 84.191406 165.542969 L 90.339844 165.542969 L 92.996094 170.132812 L 134.066406 170.132812 C 132.957031 165.789062 131.035156 161.765625 128.472656 158.226562 L 92.996094 158.226562 Z M 90.339844 162.828125 " fill-opacity="1" fill-rule="nonzero"/></g><g clip-path="url(#bc97ff18a2)"><path fill="#ffbd59" d="M 8.117188 172.859375 L 4.683594 178.808594 L 8.117188 184.769531 L 14.996094 184.769531 L 18.433594 178.808594 L 14.996094 172.859375 Z M 8.117188 172.859375 " fill-opacity="1" fill-rule="nonzero"/></g><path fill="#ffbd59" d="M 51.621094 164.1875 L 55.054688 170.132812 L 61.933594 170.132812 L 65.367188 164.1875 L 61.933594 158.238281 L 55.054688 158.238281 Z M 51.621094 164.1875 " fill-opacity="1" fill-rule="nonzero"/><path fill="#ffbd59" d="M 31.589844 202.105469 L 28.144531 208.066406 L 31.589844 214.015625 L 38.460938 214.015625 L 41.894531 208.066406 L 38.460938 202.105469 Z M 31.589844 202.105469 " fill-opacity="1" fill-rule="nonzero"/><g clip-path="url(#434c3e312f)"><path fill="#ffbd59" d="M 61 192.074219 L 54.851562 192.074219 L 52.199219 187.484375 L 45.328125 187.484375 L 41.894531 193.429688 L 45.328125 199.378906 L 52.199219 199.378906 L 54.851562 194.789062 L 61 194.789062 L 63.65625 199.378906 L 128.460938 199.378906 C 131.023438 195.839844 132.945312 191.8125 134.054688 187.472656 C 112.542969 187.472656 85.160156 187.472656 63.644531 187.472656 Z M 61 192.074219 " fill-opacity="1" fill-rule="nonzero"/></g><g clip-path="url(#d1c06e05ad)"><path fill="#ffbd59" d="M 78.609375 206.707031 L 72.460938 206.707031 L 69.804688 202.117188 C 63.609375 202.117188 57.402344 202.117188 51.195312 202.117188 L 47.761719 208.066406 L 51.195312 214.015625 C 57.402344 214.015625 63.597656 214.015625 69.804688 214.015625 L 72.460938 209.421875 L 78.609375 209.421875 L 81.265625 214.015625 C 98.863281 214.015625 113.652344 216.363281 126.289062 202.105469 L 81.265625 202.105469 Z M 78.609375 206.707031 " fill-opacity="1" fill-rule="nonzero"/></g><path stroke-linecap="round" transform="matrix(0, 0.75, -0.75, 0, 103.160799, 136.682629)" fill="none" stroke-linejoin="miter" d="M 2.001287 2.000856 L 110.829419 2.000856 " stroke="#ffbd59" stroke-width="4" stroke-opacity="1" stroke-miterlimit="4"/><g fill="#000000" fill-opacity="1"><g transform="translate(109.022889, 170.452546)"><g><path d="M 25.09375 -0.5625 C 19.15625 0.0625 13.707031 0.375 8.75 0.375 C 6.257812 0.375 4.429688 -0.207031 3.265625 -1.375 C 2.097656 -2.539062 1.515625 -4.363281 1.515625 -6.84375 L 1.515625 -19 C 1.515625 -21.664062 2.113281 -23.597656 3.3125 -24.796875 C 4.519531 -26.003906 6.457031 -26.609375 9.125 -26.609375 L 22.8125 -26.609375 L 22.8125 -21.28125 L 10.640625 -21.28125 C 9.117188 -21.28125 8.359375 -20.519531 8.359375 -19 L 8.359375 -6.84375 C 8.359375 -6.257812 8.53125 -5.796875 8.875 -5.453125 C 9.21875 -5.109375 9.679688 -4.9375 10.265625 -4.9375 C 13.179688 -4.9375 15.84375 -5 18.25 -5.125 L 18.25 -10.640625 L 13.3125 -10.640625 L 13.3125 -15.203125 L 25.09375 -15.203125 Z M 25.09375 -0.5625 "/></g></g></g><g fill="#000000" fill-opacity="1"><g transform="translate(142.173151, 170.452546)"><g><path d="M 19.390625 -19.390625 C 19.390625 -20.910156 18.628906 -21.671875 17.109375 -21.671875 L 10.640625 -21.671875 C 9.117188 -21.671875 8.359375 -20.910156 8.359375 -19.390625 L 8.359375 -7.21875 C 8.359375 -5.695312 9.117188 -4.9375 10.640625 -4.9375 L 17.109375 -4.9375 C 18.628906 -4.9375 19.390625 -5.695312 19.390625 -7.21875 Z M 26.234375 -7.21875 C 26.234375 -4.5625 25.628906 -2.628906 24.421875 -1.421875 C 23.222656 -0.222656 21.289062 0.375 18.625 0.375 L 9.125 0.375 C 6.457031 0.375 4.519531 -0.222656 3.3125 -1.421875 C 2.113281 -2.628906 1.515625 -4.5625 1.515625 -7.21875 L 1.515625 -19.390625 C 1.515625 -22.046875 2.113281 -23.972656 3.3125 -25.171875 C 4.519531 -26.378906 6.457031 -26.984375 9.125 -26.984375 L 18.625 -26.984375 C 21.289062 -26.984375 23.222656 -26.378906 24.421875 -25.171875 C 25.628906 -23.972656 26.234375 -22.046875 26.234375 -19.390625 Z M 26.234375 -7.21875 "/></g></g></g><g fill="#000000" fill-opacity="1"><g transform="translate(176.463873, 170.452546)"><g><path d="M 9.125 -5.328125 L 23 -5.328125 L 23 0 L 2.28125 0 L 2.28125 -26.609375 L 9.125 -26.609375 Z M 9.125 -5.328125 "/></g></g></g><g fill="#000000" fill-opacity="1"><g transform="translate(206.382807, 170.452546)"><g><path d="M 17.109375 -26.609375 C 19.972656 -26.609375 22.144531 -25.863281 23.625 -24.375 C 25.101562 -22.894531 25.84375 -20.726562 25.84375 -17.875 L 25.84375 -8.75 C 25.84375 -5.882812 25.101562 -3.707031 23.625 -2.21875 C 22.144531 -0.738281 19.972656 0 17.109375 0 L 2.28125 0 L 2.28125 -26.609375 Z M 19 -17.875 C 19 -20.144531 17.863281 -21.28125 15.59375 -21.28125 L 9.125 -21.28125 L 9.125 -5.328125 L 15.59375 -5.328125 C 17.863281 -5.328125 19 -6.46875 19 -8.75 Z M 19 -17.875 "/></g></g></g><g fill="#000000" fill-opacity="1"><g transform="translate(240.293377, 170.452546)"><g><path d="M 23.375 0 L 2.28125 0 L 2.28125 -26.609375 L 23.375 -26.609375 L 23.375 -21.28125 L 9.125 -21.28125 L 9.125 -16.15625 L 20.34375 -16.15625 L 20.34375 -10.828125 L 9.125 -10.828125 L 9.125 -5.328125 L 23.375 -5.328125 Z M 23.375 0 "/></g></g></g><g fill="#000000" fill-opacity="1"><g transform="translate(270.972616, 170.452546)"><g><path d="M 25.46875 0 L 18.25 0 L 9.125 -15.96875 L 9.125 0 L 2.28125 0 L 2.28125 -26.609375 L 9.5 -26.609375 L 18.625 -10.640625 L 18.625 -26.609375 L 25.46875 -26.609375 Z M 25.46875 0 "/></g></g></g><g fill="#000000" fill-opacity="1"><g transform="translate(109.022889, 210.202544)"><g><path d="M 2.28125 -26.609375 L 17.484375 -26.609375 C 19.972656 -26.609375 21.796875 -26.046875 22.953125 -24.921875 C 24.117188 -23.796875 24.703125 -22.078125 24.703125 -19.765625 C 24.703125 -18.242188 24.375 -17.007812 23.71875 -16.0625 C 23.0625 -15.113281 22.25 -14.445312 21.28125 -14.0625 C 23.34375 -13.507812 24.738281 -12.140625 25.46875 -9.953125 C 25.71875 -9.171875 25.84375 -8.257812 25.84375 -7.21875 C 25.84375 -4.738281 25.257812 -2.914062 24.09375 -1.75 C 22.9375 -0.582031 21.113281 0 18.625 0 L 2.28125 0 Z M 19 -8.359375 C 19 -9.878906 18.242188 -10.640625 16.734375 -10.640625 L 9.125 -10.640625 L 9.125 -5.328125 L 16.734375 -5.328125 C 18.242188 -5.328125 19 -6.085938 19 -7.609375 Z M 17.875 -19 C 17.875 -20.519531 17.113281 -21.28125 15.59375 -21.28125 L 9.125 -21.28125 L 9.125 -15.96875 L 15.59375 -15.96875 C 17.113281 -15.96875 17.875 -16.726562 17.875 -18.25 Z M 17.875 -19 "/></g></g></g><g fill="#000000" fill-opacity="1"><g transform="translate(142.553301, 210.202544)"><g><path d="M -0.765625 -26.609375 L 6.46875 -26.609375 L 12.734375 -13.6875 L 19 -26.609375 L 26.234375 -26.609375 L 16.15625 -7.03125 L 16.15625 0 L 9.3125 0 L 9.3125 -7.03125 Z M -0.765625 -26.609375 "/></g></g></g><g fill="#000000" fill-opacity="1"><g transform="translate(174.56309, 210.202544)"><g><path d="M 15.203125 0 L 8.359375 0 L 8.359375 -21.28125 L 0.375 -21.28125 L 0.375 -26.609375 L 23.1875 -26.609375 L 23.1875 -21.28125 L 15.203125 -21.28125 Z M 15.203125 0 "/></g></g></g><g fill="#000000" fill-opacity="1"><g transform="translate(204.672099, 210.202544)"><g><path d="M 23.375 0 L 2.28125 0 L 2.28125 -26.609375 L 23.375 -26.609375 L 23.375 -21.28125 L 9.125 -21.28125 L 9.125 -16.15625 L 20.34375 -16.15625 L 20.34375 -10.828125 L 9.125 -10.828125 L 9.125 -5.328125 L 23.375 -5.328125 Z M 23.375 0 "/></g></g></g><g fill="#000000" fill-opacity="1"><g transform="translate(235.351338, 210.202544)"><g><path d="M 1.484375 -5.515625 C 8.429688 -5.128906 13.132812 -4.9375 15.59375 -4.9375 C 16.164062 -4.9375 16.625 -5.109375 16.96875 -5.453125 C 17.3125 -5.796875 17.484375 -6.257812 17.484375 -6.84375 L 17.484375 -10.265625 L 8.75 -10.265625 C 6.082031 -10.265625 4.144531 -10.863281 2.9375 -12.0625 C 1.738281 -13.269531 1.140625 -15.207031 1.140625 -17.875 L 1.140625 -19 C 1.140625 -21.664062 1.738281 -23.597656 2.9375 -24.796875 C 4.144531 -26.003906 6.082031 -26.609375 8.75 -26.609375 L 22.09375 -26.609375 L 22.09375 -21.28125 L 10.265625 -21.28125 C 8.742188 -21.28125 7.984375 -20.519531 7.984375 -19 L 7.984375 -18.25 C 7.984375 -16.726562 8.742188 -15.96875 10.265625 -15.96875 L 17.109375 -15.96875 C 19.585938 -15.96875 21.410156 -15.382812 22.578125 -14.21875 C 23.742188 -13.050781 24.328125 -11.226562 24.328125 -8.75 L 24.328125 -6.84375 C 24.328125 -4.363281 23.742188 -2.539062 22.578125 -1.375 C 21.410156 -0.207031 19.585938 0.375 17.109375 0.375 C 15.816406 0.375 14.445312 0.347656 13 0.296875 L 9.5 0.15625 C 6.914062 0.03125 4.242188 -0.144531 1.484375 -0.375 Z M 1.484375 -5.515625 "/></g></g></g><g fill="#ffbd59" fill-opacity="1"><g transform="translate(269.56736, 196.513638)"><g><path d="M 1.203125 -14.046875 L 9.625 -14.046875 C 11.03125 -14.046875 12.050781 -13.726562 12.6875 -13.09375 C 13.320312 -12.457031 13.640625 -11.4375 13.640625 -10.03125 L 13.640625 -8.03125 C 13.640625 -6.625 13.320312 -5.601562 12.6875 -4.96875 C 12.050781 -4.332031 11.03125 -4.015625 9.625 -4.015625 L 4.8125 -4.015625 L 4.8125 0 L 1.203125 0 Z M 10.03125 -10.03125 C 10.03125 -10.832031 9.628906 -11.234375 8.828125 -11.234375 L 4.8125 -11.234375 L 4.8125 -6.828125 L 8.828125 -6.828125 C 9.628906 -6.828125 10.03125 -7.226562 10.03125 -8.03125 Z M 10.03125 -10.03125 "/></g></g></g><g fill="#ffbd59" fill-opacity="1"><g transform="translate(283.803397, 196.513638)"><g><path d="M 1.203125 -14.046875 L 9.625 -14.046875 C 11.03125 -14.046875 12.050781 -13.726562 12.6875 -13.09375 C 13.320312 -12.457031 13.640625 -11.4375 13.640625 -10.03125 L 13.640625 -8.21875 C 13.640625 -7.113281 13.453125 -6.253906 13.078125 -5.640625 C 12.710938 -5.023438 12.128906 -4.613281 11.328125 -4.40625 L 13.84375 0 L 9.9375 0 L 7.625 -4.21875 L 4.8125 -4.21875 L 4.8125 0 L 1.203125 0 Z M 10.03125 -10.03125 C 10.03125 -10.832031 9.628906 -11.234375 8.828125 -11.234375 L 4.8125 -11.234375 L 4.8125 -7.015625 L 8.828125 -7.015625 C 9.628906 -7.015625 10.03125 -7.414062 10.03125 -8.21875 Z M 10.03125 -10.03125 "/></g></g></g><g fill="#ffbd59" fill-opacity="1"><g transform="translate(298.239947, 196.513638)"><g><path d="M 10.234375 -10.234375 C 10.234375 -11.035156 9.832031 -11.4375 9.03125 -11.4375 L 5.625 -11.4375 C 4.8125 -11.4375 4.40625 -11.035156 4.40625 -10.234375 L 4.40625 -3.8125 C 4.40625 -3.007812 4.8125 -2.609375 5.625 -2.609375 L 9.03125 -2.609375 C 9.832031 -2.609375 10.234375 -3.007812 10.234375 -3.8125 Z M 13.84375 -3.8125 C 13.84375 -2.40625 13.523438 -1.382812 12.890625 -0.75 C 12.253906 -0.113281 11.234375 0.203125 9.828125 0.203125 L 4.8125 0.203125 C 3.40625 0.203125 2.382812 -0.113281 1.75 -0.75 C 1.113281 -1.382812 0.796875 -2.40625 0.796875 -3.8125 L 0.796875 -10.234375 C 0.796875 -11.640625 1.113281 -12.660156 1.75 -13.296875 C 2.382812 -13.929688 3.40625 -14.25 4.8125 -14.25 L 9.828125 -14.25 C 11.234375 -14.25 12.253906 -13.929688 12.890625 -13.296875 C 13.523438 -12.660156 13.84375 -11.640625 13.84375 -10.234375 Z M 13.84375 -3.8125 "/></g></g></g></svg>